# xmcd
# 
# Track frame offsets:
#     150
#     6622
#     25750
#     47285
#     68670
#     94437
#     114742
#     121795
#     140095
#     169155
#     193847
# 
# Disc length: 2905
# 
# Revision: 3
# Processed by: cddbd v1.5.2PL0 Copyright (c) Steve Scherf et al.
# Submitted via: fre:ac v1.0.17
# 
DISCID=990b570b
DTITLE=P27 - Overdose Funk
DYEAR=1992
DGENRE=Hip-Hop
TTITLE0=Funktroduction
TTITLE1=Overdose Funk
TTITLE2=Summerzyyt
TTITLE3=Evil Dreams - Metalmix
TTITLE4=A.I.D.S.- Die schlyychendy Gfohr
TTITLE5=Pure Dialäkt - Baselmix
TTITLE6=Funk'a'muffn
TTITLE7=Stress isch, was ich vermyyd!
TTITLE8=Organised Chaos
TTITLE9=Evil Dreams 2
TTITLE10=Murder By Dialect
EXTD=
EXTT0=
EXTT1=
EXTT2=
EXTT3=
EXTT4=
EXTT5=
EXTT6=
EXTT7=
EXTT8=
EXTT9=
EXTT10=
PLAYORDER=
